<svg class="{{ include.class }}" width="636" height="249" viewBox="0 0 636 249" fill="none" xmlns="http://www.w3.org/2000/svg" role="img" aria-label="Watt Data">
<path d="M283.391 220.249L251.275 114.784H273.28L295.88 197.253L319.074 114.784H338.898L362.093 197.253L384.89 114.784H406.895L374.78 220.249H351.189L328.986 144.917L306.783 220.249H283.391Z" fill="white"/>
<path d="M442.913 222.628C431.944 222.628 423.155 220.117 416.547 215.095C410.071 210.073 406.833 203.002 406.833 193.883C406.833 184.764 409.543 177.693 414.961 172.671C420.512 167.517 429.036 163.816 440.535 161.569L476.813 154.631C476.813 146.437 474.896 140.357 471.064 136.393C467.231 132.296 461.548 130.247 454.015 130.247C447.275 130.247 441.988 131.767 438.156 134.807C434.323 137.714 431.68 142.075 430.226 147.891L408.618 146.503C410.6 135.93 415.49 127.604 423.287 121.524C431.217 115.445 441.46 112.405 454.015 112.405C468.288 112.405 479.126 116.238 486.527 123.903C494.06 131.437 497.826 142.075 497.826 155.82V196.856C497.826 199.367 498.223 201.152 499.016 202.209C499.941 203.134 501.395 203.597 503.377 203.597H507.144V220.249C506.483 220.381 505.426 220.513 503.972 220.645C502.518 220.778 500.998 220.844 499.412 220.844C494.919 220.844 491.02 220.117 487.716 218.663C484.544 217.209 482.165 214.83 480.579 211.526C478.993 208.09 478.2 203.531 478.2 197.848L480.381 198.839C479.324 203.464 477.011 207.561 473.443 211.13C470.006 214.698 465.579 217.54 460.16 219.654C454.874 221.637 449.125 222.628 442.913 222.628ZM446.284 205.976C452.627 205.976 458.046 204.786 462.539 202.407C467.033 199.896 470.535 196.46 473.046 192.099C475.557 187.737 476.813 182.781 476.813 177.23V170.49L445.887 176.437C439.543 177.627 435.05 179.543 432.407 182.186C429.896 184.698 428.64 187.935 428.64 191.9C428.64 196.394 430.16 199.896 433.2 202.407C436.371 204.786 440.733 205.976 446.284 205.976Z" fill="white"/>
<path d="M551.977 220.249C541.933 220.249 534.532 217.936 529.774 213.31C525.017 208.685 522.638 201.482 522.638 191.702V90.0039H543.651V190.116C543.651 195.006 544.709 198.376 546.823 200.227C548.938 202.077 552.176 203.002 556.537 203.002H571.603V220.249H551.977ZM506.58 132.031V114.784H571.603V132.031H506.58ZM616.01 220.249C605.965 220.249 598.564 217.936 593.806 213.31C589.049 208.685 586.67 201.482 586.67 191.702V90.0039H607.683V190.116C607.683 195.006 608.741 198.376 610.855 200.227C612.97 202.077 616.208 203.002 620.569 203.002H635.636V220.249H616.01ZM570.612 132.031V114.784H635.636V132.031H570.612Z" fill="white"/>
<path d="M14.8767 117.7C8.53081 111.074 -2.10135 117.606 0.364124 126.617L32.0495 242.411C34.1358 250.036 43.9225 251.402 47.8536 244.617L96.74 160.246C100.762 153.305 110.819 154.934 112.637 162.821L125.002 216.452C126.867 224.54 137.3 225.971 141.101 218.66L247.797 13.4881C252.371 4.69252 241.949 -4.22901 234.586 2.17835L140.089 84.4014C135.384 88.4958 128.208 86.3641 126.271 80.2968L114.111 42.2083C111.612 34.3782 101.214 33.8083 97.9425 41.3222L54.3187 141.531C51.8059 147.304 44.545 148.678 40.2511 144.195L14.8767 117.7Z" fill="white"/>
</svg>
