<svg class="{{ include.class }}" width="1080" height="181" viewBox="0 0 1080 181" fill="none" xmlns="http://www.w3.org/2000/svg"><g transform="translate(108 18.1) scale(0.8)">
<path fill-rule="evenodd" clip-rule="evenodd" d="M288.606 0.764771L196.515 180.792H110.016L148.556 106.181H146.827C115.032 147.455 67.5931 174.626 0 180.792V107.213C0 107.213 43.2409 104.659 68.661 77.9338H0V0.766193H77.1676V64.2354L78.8996 64.2283L110.433 0.766193H168.793V63.833L170.525 63.8301L203.241 0.764771H288.606Z" fill="white"/>
<path d="M790.78 160.92H815.632V18.2673H790.78V160.92Z" fill="white"/>
<path fill-rule="evenodd" clip-rule="evenodd" d="M653.772 159.464C659.174 161.709 664.666 162.832 670.25 162.832C679.475 162.832 687.728 160.586 695.011 156.095C702.294 151.604 707.938 145.414 711.944 137.524C715.95 129.574 717.952 120.561 717.952 110.486C717.952 100.412 715.889 91.3993 711.762 83.4489C707.635 75.4984 701.9 69.3384 694.556 64.9686C687.213 60.5382 678.868 58.3534 669.521 58.4141C663.574 58.4141 657.869 59.5672 652.407 61.8734C646.944 64.1797 642.393 67.457 638.751 71.7053C638.47 72.0287 638.197 72.3554 637.932 72.6854V18.3584H612.988V160.92H637.75L637.7 147.602C638.341 148.387 639.025 149.155 639.753 149.905C643.698 153.971 648.371 157.157 653.772 159.464ZM679.262 136.432C675.196 138.92 670.553 140.164 665.334 140.164C660.175 140.164 655.441 138.89 651.132 136.341C646.823 133.731 643.394 130.181 640.845 125.689C638.357 121.198 637.113 116.1 637.113 110.395C637.052 104.691 638.266 99.5926 640.754 95.1015C643.303 90.5497 646.732 87.0296 651.041 84.5413C655.35 81.9923 660.114 80.7482 665.334 80.8089C670.553 80.7482 675.196 81.962 679.262 84.4503C683.389 86.8779 686.545 90.3676 688.73 94.9194C690.975 99.4105 692.098 104.569 692.098 110.395C692.098 116.222 690.975 121.38 688.73 125.872C686.545 130.363 683.389 133.883 679.262 136.432Z" fill="white"/>
<path d="M324.611 26.9157H353.014L378.422 119.706L405.451 26.9157H429.12L458.434 117.844L482.831 26.9157H508.867L470.45 160.92H445.961L416.154 72.0913L388.791 160.92H364.029L324.611 26.9157Z" fill="white"/>
<path fill-rule="evenodd" clip-rule="evenodd" d="M550.811 163.287C540.918 163.348 531.997 161.163 524.046 156.733C516.157 152.242 509.936 146.021 505.384 138.07C500.893 130.12 498.647 121.047 498.647 110.851C498.647 100.958 500.954 92.0062 505.566 83.9951C510.178 75.984 516.43 69.7328 524.319 65.2417C532.209 60.7507 541.009 58.5051 550.72 58.5051C561.644 58.5051 571.203 60.9327 579.396 65.788C587.65 70.6432 593.81 77.5316 597.876 86.4531C602.003 95.3139 603.49 105.48 602.337 116.95H524.358C524.576 121.52 525.716 125.677 527.779 129.422C530.085 133.549 533.302 136.765 537.428 139.072C541.555 141.378 546.168 142.531 551.266 142.531C555.15 142.47 558.761 141.803 562.099 140.528C565.437 139.193 568.259 137.403 570.566 135.157C572.932 132.912 574.601 130.363 575.572 127.51H601.609C600.031 134.49 596.875 140.71 592.141 146.172C587.407 151.574 581.459 155.792 574.298 158.826C567.136 161.861 559.307 163.348 550.811 163.287ZM527.87 91.9152C526.415 94.4515 525.408 97.1825 524.847 100.108H576.537C576.162 96.412 575.021 93.0437 573.114 90.0035C570.93 86.4227 567.956 83.6613 564.193 81.7192C560.43 79.7164 556.182 78.715 551.448 78.715C546.411 78.715 541.829 79.8682 537.702 82.1744C533.575 84.4806 530.297 87.7276 527.87 91.9152Z" fill="white"/>
<path d="M736.25 60.5989C736.25 52.4664 738.102 45.2442 741.804 38.9324C745.506 32.5599 750.695 27.6137 757.371 24.0936C764.107 20.5129 771.967 18.6618 780.949 18.5404V40.6621C776.761 40.7228 773.181 41.6028 770.207 43.3022C767.294 44.9408 765.048 47.3381 763.47 50.494C762.017 53.3994 761.233 56.7677 761.118 60.5989H780.403V81.6282H761.103V160.92H736.25V81.6282H720.228V60.5989H736.25Z" fill="white"/>
<path fill-rule="evenodd" clip-rule="evenodd" d="M878.811 163.105C868.676 163.105 859.603 160.89 851.591 156.46C843.641 151.968 837.39 145.778 832.838 137.888C828.347 129.938 826.101 120.925 826.101 110.851C826.101 100.715 828.347 91.6725 832.838 83.722C837.39 75.7109 843.641 69.4901 851.591 65.0597C859.603 60.6293 868.676 58.4141 878.811 58.4141C889.007 58.4141 898.111 60.6293 906.122 65.0597C914.194 69.4901 920.475 75.6805 924.966 83.631C929.457 91.5814 931.733 100.655 931.794 110.851C931.733 120.925 929.457 129.938 924.966 137.888C920.536 145.778 914.285 151.968 906.213 156.46C898.141 160.89 889.007 163.105 878.811 163.105ZM878.811 140.255C884.152 140.255 888.886 139.041 893.013 136.614C897.14 134.125 900.326 130.666 902.571 126.236C904.817 121.745 905.94 116.616 905.94 110.851C905.94 105.024 904.817 99.8657 902.571 95.3746C900.326 90.8835 897.14 87.4241 893.013 84.9965C888.886 82.5082 884.152 81.264 878.811 81.264C873.531 81.264 868.828 82.5082 864.701 84.9965C860.634 87.4241 857.478 90.8835 855.233 95.3746C852.987 99.8657 851.895 105.024 851.956 110.851C851.956 116.616 853.078 121.745 855.324 126.236C857.63 130.666 860.786 134.125 864.792 136.614C868.858 139.041 873.531 140.255 878.811 140.255Z" fill="white"/>
<path d="M958.649 60.5989H930.975L960.925 160.92H985.141L1004.84 96.8452L1026.11 160.92H1049.96L1080 60.5989H1054.97L1037.93 123.043L1019.1 60.5989H994.882L976.141 124.418L958.649 60.5989Z" fill="white"/>
</g></svg>
