<?xml version="1.0" encoding="UTF-8"?>
<svg width="661px" height="768px" viewBox="0 0 661 768" version="1.1" xmlns="http://www.w3.org/2000/svg" xmlns:xlink="http://www.w3.org/1999/xlink">
    <title>Cloak</title>
    <g id="Page-1" stroke="none" stroke-width="1" fill="none" fill-rule="evenodd">
        <g id="5025F876-BB6D-49A5-A3F2-ADEE647BE989-2" fill-rule="nonzero">
            <path d="M62.189,0.7955 C63.411,0.9839 64.363,1.153 65.357,1.9268 C68.182,4.126 69.682,8.1238 70.732,11.457 C76.072,28.413 79.751,46.267 84.253,63.499 C90.561,87.647 97.548,111.63 103.986,135.752 C106.489333,144.978667 109.103333,154.174 111.828,163.338 C113.262,168.277 115.507,173.967 115.949,179.078 C116.267,182.766 114.33,187.193 112.374,190.207 C109.561,194.539 105.466,198.034 101.884,201.724 C95.175,208.636 88.336,215.539 82.01,222.803 L82.04,427.517 C82.946,427.847667 83.849,428.185667 84.749,428.531 C89.698,430.375 93.539,432.903 97.363,436.549 C108.148,446.829 111.623,456.894 111.992,471.576 C113.118,471.518667 114.24,471.417667 115.358,471.273 C129.958,469.351 148.702,435.394 158.023,423.34 C140.262,406.329 124.066,386.795 119.941,361.76 C112.044,313.829 135.041,250.805 157.603,209.088 C165.51,194.468 174.685,180.383 184.358,166.877 C219.393,117.956 267.392,72.816 328.999,62.811 C376.282,55.132 425.258,70.522 462.846,99.519 C476.578,110.113 488.933,122.762 500.207,135.9 C517.518,156.074 532.032,179.22 551.294,197.611 C557.605,203.636 564.977,208.301 572.503,212.659 C575.692,214.505 579.216,216.159 582.161,218.369 C585.275,220.706 587.744,223.809 588.114,227.789 C588.837,235.554 582.927,243.938 578.041,249.493 C576.099667,251.667 574.039667,253.722 571.861,255.658 C569.682333,257.593333 567.399333,259.397 565.012,261.069 C552.187,270.182 543.078,270.439 527.895,271.331 C528.295,278.141 530.321,285.012 531.497,291.738 C532.97,300.171 533.748,308.823 534.288,317.364 C535.944,343.559 533.142,370.313 518.228,392.661 C513.315,400.024 507.368,406.583 501.537,413.215 C510.759,421.916 520.733,429.331 529.25,438.86 C558.115,471.154 571.939,516.888 585.736,557.025 C596.113,584.562 607.744,615.406 628.388,637.016 C635.155,644.099 642.794,650.497 649.943,657.209 C652.631,659.733 655.789,662.274 658.066,665.159 C660.103,667.739 661.453,670.871 660.891,674.203 C659.176,684.373 637.618,700.145 629.371,706.022 C570.243,748.165 477.64,762.945 406.575,766.711 C397.245,767.205 387.87,766.975 378.527,767.208 C329.818,768.422 280.76,766.647 232.631,758.532 C199.395,752.927 125.86,738.448 105.947,710.062 C102.798,705.573 101.519,700.636 101.092,695.246 C99.924,680.487 102.844,664.361 104.765,649.668 C107.189667,630.803333 109.936333,611.985667 113.005,593.215 C101.082,584.92 91.392,576.116 82.021,565.02 L82.02,677.299 L82.013,709.462 C82.009,715.937 82.409,722.697 81.488,729.113 C80.921,733.062 79.613,736.209 76.78,739.098 C72.656,743.302 66.945,745.299 61.11,745.119 C55.753,744.953 50.7,742.737 47.105,738.732 C43.768,735.016 42.841,730.832 42.28,726.04 C41.39,718.426 41.794,710.547 41.815,702.884 L41.895,665.924 C41.849,629.71 40.856,593.303 41.938,557.115 C37.753,556.114 33.635,555.037 29.753,553.137 C17.349,547.067 8.465,534.098 4.242,521.254 C-2.684,500.188 1.087,475.487 11.071,456.004 C18.178,442.134 27.11,434.025 41.889,429.223 C41.125,396.695 41.813,363.949 41.833,331.397 C41.854,296.042 41.271,260.621 41.929,225.276 L41.816,225.129 C34.202,215.089 21.425,203.827 12.606,194.255 C9.609,191.002 5.731,185.906 6.057,181.291 C6.577,173.955 9.692,165.975 11.729,158.935 L22.505,121.584 L44.7,45.667 C48.137,34.038 51.263,19.863 55.78,8.9591 C57.154,5.6418 59.479,3.0687 62.189,0.7955 Z" id="Path" fill="#24210E"></path>
            <path d="M334.023,707.262 C306.869,698.791 277.658,680.76 255.503,663.118 C217.332,632.721 185.901,589.143 171.378,542.348 C166.138,525.467 163.216,507.708 161.265,490.173 C167.545,505.66 178.15,520.778 188.211,534.061 C190.720333,537.311667 193.270333,540.53 195.861,543.716 C198.452333,546.902 201.083667,550.054333 203.755,553.173 C206.426333,556.292333 209.137,559.377 211.887,562.427 C214.636333,565.477 217.424333,568.491333 220.251,571.47 C223.077667,574.449333 225.941667,577.392 228.843,580.298 C231.744333,583.204 234.682333,586.072667 237.657,588.904 C240.631667,591.735333 243.641667,594.528333 246.687,597.283 C249.732333,600.037667 252.812333,602.753333 255.927,605.43 C259.041667,608.106 262.19,610.742333 265.372,613.339 C268.554,615.935 271.768333,618.49 275.015,621.004 C278.261667,623.518667 281.54,625.991333 284.85,628.422 C288.159333,630.853333 291.499333,633.242 294.87,635.588 C298.240667,637.934 301.640667,640.236667 305.07,642.496 C308.498667,644.755333 311.956,646.970667 315.442,649.142 C318.927333,651.313333 322.439667,653.44 325.979,655.522 C329.519,657.604 333.084667,659.640667 336.676,661.632 C352.02,670.172 368.239,677.646 384.428,684.432 C389.903,686.727 395.596,688.482 401.02,690.895 L401.586,691.151 C405.742,692.401 410.056,693.907 414.052,695.609 C438.367,702.827 462.52,710.722 487.543,715.304 C491.103,716.151 494.654,716.791 498.268,717.364 C494.648,718.763 490.73,720.334 486.849,720.778 C463.497,727.574 436.008,728.055 411.864,725.497 C409.176,725.212 404.522,725.231 402.162,724.173 C398.858,723.973 395.73,723.444 392.486,722.804 C387.792,723.665 357.749,715.474 352.016,713.723 C346.292,711.975 340.615,709.867 335.023,707.738 L334.023,707.262 Z" id="Path" fill="#5D522C"></path>
            <path d="M401.586,691.151 C405.742,692.401 410.056,693.907 414.052,695.609 C412.359333,695.820333 410.664,696.004 408.966,696.16 L408.937,696.652 L411.427,698.361 L411.228,698.854 C405.81,698.444 408.09,700.638 403.83,700.98 L403.39,700.604 C404.171,699.436 405.096,698.07 405.266,696.632 C405.431,695.243 405.003,694.57 404.244,693.474 C403.156,692.965 402.197,692.476 401.201,691.794 L401.586,691.151 Z" id="Path" fill="#645931"></path>
            <path d="M487.543,715.304 C491.103,716.151 494.654,716.791 498.268,717.364 C494.648,718.763 490.73,720.334 486.849,720.778 C487.189,718.369 488.207,719.295 489.443,717.677 C489.29,717.547 488.337,716.726 488.19,716.622 C488.082,716.546 487.952,716.506 487.833,716.448 L487.543,715.304 Z" id="Path" fill="#645931"></path>
            <path d="M397.477,719.153 C397.214,718.105 396.897,717.151 397.132,716.066 C397.294,715.319 397.314,715.519 398.025,715.024 L398.707,715.595 L398.758,716.632 C398.8,719.156 398.731,721.04 400.291,723.139 C400.579,723.09 400.866,723.037 401.154,722.992 C402.265,722.822 401.82,722.807 402.741,722.987 L402.162,724.173 C398.858,723.973 395.73,723.444 392.486,722.804 L393.795,722.082 C394.59,722.283 395.272,722.45 396.1,722.458 C396.928,722.466 396.882,722.232 397.415,721.671 L397.01,720 L397.477,719.153 Z" id="Path" fill="#645931"></path>
            <path d="M334.023,707.262 L333.79,705.601 L332.731,704.953 L332.544,703.946 L332.571,704.224 C333.948,702.941 335.105,702.446 335.217,700.489 C335.237,700.135 335.221,699.7 335.212,699.338 L336.069,699.565 C336.608,700.909 336.889,702.048 337.121,703.478 L337.573,704.011 C337.415,704.14 337.252,704.264 337.097,704.398 C336.145,705.226 335.293,706.492 335.023,707.738 L334.023,707.262 Z" id="Path" fill="#645931"></path>
            <path d="M243.661,626.368 C245.632,627.166 246.997,626.375 248.893,626.826 C249.648,627.005 249.426,626.932 249.789,627.641 L249.497,628.403 C247.899,628.073 246.517,627.779 244.883,627.934 C243.499,629.609 245.053,631.656 244.365,633.655 C244.07,634.515 243.812,635.272 243.579,636.164 L241.008,635.992 C240.751,634.994 240.631,635.22 241.148,634.198 L242.957,634.717 L243.174,633.756 C242.131,632.704 241.409,633.011 239.99,632.963 L239.875,632.225 L240.736,631.318 C241.621,631.305 241.822,631.298 242.64,630.871 C242.169,629.74 241.436,629.307 240.47,628.635 L240.062,628.355 L240.596,627.761 C241.471,627.562 242.119,627.312 242.881,626.85 L243.661,626.368 Z" id="Path" fill="#645931"></path>
            <path d="M270.352,650.811 C271.039,651.233 271.333,651.551 271.848,652.152 L271.635,654.131 C273.469,654.691 274.68,653.187 276.697,653.746 L277.156,654.753 C276.034,655.719 274.329,655.073 272.83,655.523 C273.114,656.84 273.508,656.766 274.56,657.521 L275.068,657.665 C274.422,658.032 274.645,657.832 274.155,658.41 C274.039,658.547 273.929,658.689 273.816,658.828 L272.908,657.088 C272.554,657.65 272.679,657.366 272.479,658.118 C272.428,658.311 272.382,658.506 272.333,658.7 C270.916,657.508 270.521,655.168 269.984,653.447 C270.263,652.295 270.202,652.747 270.296,651.599 C270.318,651.337 270.333,651.074 270.352,650.811 Z" id="Path" fill="#645931"></path>
            <path d="M351.567,703.511 C352.374,703.242 354.663,704.688 355.503,705.106 L357.023,704.4 L357.776,704.737 C358.058,706.491 357.14,707.696 356.395,709.265 C355.732,709.011 356.109,709.214 355.374,708.485 L356.459,706.855 L355.926,706.168 C354.054,705.961 353.119,705.553 351.657,704.369 L351.567,703.511 Z" id="Path" fill="#645931"></path>
            <path d="M296.279,669.85 C296.344,669.912 296.428,669.958 296.473,670.035 C297.218,671.311 298.569,671.87 299.116,673.023 C299.415,673.653 298.935,674.223 298.687,674.815 L298.041,674.805 C297.142,673.544 297.429,673.21 297.615,671.718 L295.877,671.919 C294.908,673.093 296.181,673.57 295.522,674.737 L294.192,674.336 L293.954,673.28 C294.604,671.45 294.808,671.109 296.279,669.85 Z" id="Path" fill="#645931"></path>
            <path d="M261.244,639.278 L261.753,639.336 C262.518,640.443 263.566,641.434 263.588,642.794 L261.975,641.211 L261.314,641.266 L261.193,642.687 C262.091,643.543 261.729,643.043 262.265,644.197 L261.084,644.586 C259.934,644.243 259.962,644.217 259.291,643.212 C259.325,641.494 260.242,640.567 261.244,639.278 Z" id="Path" fill="#645931"></path>
            <path d="M308.618,667.132 C308.94,667.093 309.472,667.014 309.823,667.017 C311.453,667.03 314.805,667.615 315.856,668.725 L315.142,668.777 C314.33,669.284 314.573,669.019 314.041,669.776 C313.919,669.948 313.809,670.128 313.692,670.304 L312.757,670.179 C311.59,668.876 310.648,668.062 309.048,667.322 C308.906,667.257 308.762,667.196 308.618,667.132 Z" id="Path" fill="#645931"></path>
            <path d="M178.582,536.821 C178.904,537.254 179.154,537.726 179.424,538.194 L177.607,539.029 C178.297,540.602 180.543,541.665 181.983,542.503 L181.96,543.557 L181.81,544.064 C179.733,543.097 178.475,542.476 177.406,540.372 C177.414,538.569 177.665,538.3 178.582,536.821 Z" id="Path" fill="#645931"></path>
            <path d="M262.52,631.912 L262.565,631.925 L262.893,632.552 C262.456,633.387 262.153,634.129 261.905,635.04 L262.638,635.425 C263.178,634.571 263.618,633.943 264.4,633.298 C265.452,634.017 265.033,633.562 265.662,634.654 C265.011,635.298 264.284,635.802 263.489,636.254 C262.491,636.82 262.359,637.138 261.254,636.823 C260.915,634.65 261.562,633.805 262.52,631.912 Z" id="Path" fill="#645931"></path>
            <path d="M379.601,712.269 L380.144,712.42 C379.848,713.68 378.158,713.794 377.303,714.684 C377.089,714.907 376.957,715.195 376.783,715.45 L376.498,714.994 C375.518,714.894 375.109,714.849 374.22,714.371 C375.273,713.142 378.012,712.752 379.601,712.269 Z" id="Path" fill="#645931"></path>
            <path d="M240.327,599.835 C241.209,600.643 241.584,600.905 241.996,602.059 C241.165,602.41 240.944,602.512 240.319,603.212 L241.192,604.795 L240.978,605.166 L240.213,605.31 L239.382,604.063 C239.244,601.981 239.442,601.63 240.327,599.835 Z" id="Path" fill="#645931"></path>
            <path d="M431.457,714.551 L431.645,714.959 L431.77,714.398 L431.939,714.561 C432.192,715.922 432.49,716.994 431.982,718.341 L431.089,718.568 L429.406,717.169 L429.306,716.616 C428.369,716.86 428.824,716.852 427.942,716.685 L427.98,715.742 C429.038,716.038 429.876,716.21 430.977,716.195 L431.457,714.551 Z" id="Path" fill="#645931"></path>
            <path d="M377.107,708.313 C377.876,709.411 377.93,709.438 377.875,710.769 C376.784,711.962 375.388,712.206 373.892,712.641 L373.44,712.381 C375.142,711.102 376.215,710.273 377.107,708.313 Z" id="Path" fill="#645931"></path>
            <path d="M410.668,706.678 C412.13,707.415 412.69,708.514 413.519,709.851 C413.298,709.881 413.078,709.927 412.855,709.94 C411.28,710.036 410.319,709.272 409.237,708.238 L410.668,706.678 Z" id="Path" fill="#645931"></path>
            <path d="M324.44,664.026 L324.604,664.016 L325.055,664.483 C324.604,665.722 324.245,667.056 323.433,668.111 C322.677,667.333 322.059,666.784 321.723,665.731 C322.568,665.381 323.182,665.093 323.899,664.504 C324.084,664.351 324.259,664.186 324.44,664.026 Z" id="Path" fill="#645931"></path>
            <path d="M232.943,593.017 C234.086,592.817 235.172,592.875 236.323,592.92 L236.503,593.526 L235.224,595.04 L235.229,595.855 C234.138,594.927 233.6,594.334 232.943,593.017 Z" id="Path" fill="#645931"></path>
            <path d="M367.077,709.747 C368.144,710.603 368.22,711.733 368.623,713.014 L368.236,713.737 L367.411,714.251 L366.826,713.62 C366.601,712.173 366.772,711.144 367.077,709.747 Z" id="Path" fill="#645931"></path>
            <path d="M335.325,688.048 C336.641,688.052 338.002,688.223 339.318,688.323 L339.557,689.271 C339.077,689.803 338.65,689.798 337.977,689.999 C336.447,689.495 336.338,689.32 335.325,688.048 Z" id="Path" fill="#645931"></path>
            <path d="M379.196,697.86 C379.47,698.152 379.683,698.649 379.881,699.001 C379.326,700.156 378.613,701.13 377.864,702.161 C377.551,701.87 377.279,701.35 377.04,700.99 C377.362,699.519 378.184,698.95 379.196,697.86 Z" id="Path" fill="#645931"></path>
            <path d="M437.03,715.406 C438.525,716.483 438.92,718.434 439.428,720.109 C438.425,719.812 438.028,719.43 437.313,718.679 C436.869,717.403 436.809,716.739 437.03,715.406 Z" id="Path" fill="#645931"></path>
            <path d="M211.67,607.078 C212.491,607.161 212.732,607.457 213.4,607.913 C213.819,609.282 213.688,609.432 213.23,610.812 L212.162,610.846 C211.209,609.927 212.187,608.56 211.67,607.078 Z" id="Path" fill="#645931"></path>
            <path d="M425.285,700.195 C425.422,700.347 425.55,700.508 425.697,700.651 C426.463,701.405 427.217,702.058 427.918,702.883 L427.485,704.583 L426.485,704.822 C425.524,703.648 425.493,701.661 425.285,700.195 Z" id="Path" fill="#645931"></path>
            <path d="M440.071,715.45 C440.106333,715.429333 440.142667,715.410333 440.18,715.393 C440.217333,715.375667 440.255333,715.360333 440.294,715.347 C440.332667,715.333 440.372,715.321333 440.412,715.312 C440.452,715.302 440.492333,715.294 440.533,715.288 C440.573667,715.282667 440.614333,715.279 440.655,715.277 C440.696333,715.275 440.737333,715.275 440.778,715.277 C440.819333,715.279 440.860333,715.283 440.901,715.289 C440.941,715.295 440.981,715.303 441.021,715.313 C441.061,715.323 441.100333,715.335 441.139,715.349 C441.177667,715.362333 441.215667,715.377667 441.253,715.395 C441.290333,715.413 441.326667,715.432333 441.362,715.453 C441.397333,715.473667 441.431333,715.496333 441.464,715.521 C441.497333,715.545 441.529333,715.570667 441.56,715.598 C441.590667,715.625333 441.62,715.654 441.648,715.684 C441.675333,715.714 441.701667,715.745333 441.727,715.778 C441.751667,715.811333 441.774667,715.845333 441.796,715.88 C441.817333,715.914667 441.837,715.950667 441.855,715.988 C441.873,716.024667 441.889333,716.062333 441.904,716.101 C441.918667,716.139667 441.931,716.178667 441.941,716.218 C441.951667,716.258 441.960333,716.298 441.967,716.338 C441.973667,716.378667 441.978667,716.419667 441.982,716.461 C441.984667,716.501667 441.985333,716.542667 441.984,716.584 C441.982667,716.624667 441.979333,716.665333 441.974,716.706 C441.968667,716.746667 441.961667,716.787 441.953,716.827 C441.943667,716.867 441.932667,716.906667 441.92,716.946 C441.906667,716.984667 441.891667,717.023 441.875,717.061 C441.858333,717.098333 441.84,717.135 441.82,717.171 C441.8,717.206333 441.778333,717.241 441.755,717.275 C441.731,717.308333 441.705667,717.340667 441.679,717.372 C441.652333,717.403333 441.624333,717.433333 441.595,717.462 C441.565,717.49 441.534,717.516667 441.502,717.542 C441.47,717.568 441.436667,717.592 441.402,717.614 C441.306667,717.675333 441.205333,717.723 441.098,717.757 C440.99,717.791 440.879667,717.810667 440.767,717.816 C440.653667,717.820667 440.542,717.810333 440.432,717.785 C440.322,717.760333 440.217,717.721333 440.117,717.668 C440.017,717.614667 439.926,717.549333 439.844,717.472 C439.761333,717.394667 439.690333,717.308 439.631,717.212 C439.571667,717.116 439.526,717.013667 439.494,716.905 C439.462667,716.796333 439.445667,716.685667 439.443,716.573 C439.440333,716.459667 439.453,716.348333 439.481,716.239 C439.508333,716.129 439.549333,716.024667 439.604,715.926 C439.659333,715.827333 439.726667,715.737667 439.806,715.657 C439.885333,715.576333 439.973667,715.507333 440.071,715.45 Z" id="Path" fill="#645931"></path>
            <path d="M348.872,690.882 C349.691,691.309 350.025,691.569 350.658,692.199 L350.469,693.402 L350.123,693.533 L349.342,693.114 L348.872,690.882 Z" id="Path" fill="#645931"></path>
            <path d="M293.978,668.688 C294.042,668.692 294.105333,668.701667 294.168,668.717 C294.230667,668.732333 294.291333,668.753 294.35,668.779 C294.408667,668.805667 294.464333,668.837333 294.517,668.874 C294.570333,668.91 294.619667,668.950667 294.665,668.996 C294.711,669.041333 294.752333,669.090667 294.789,669.144 C294.825667,669.196667 294.857333,669.252333 294.884,669.311 C294.910667,669.369667 294.931667,669.43 294.947,669.492 C294.963,669.554667 294.973,669.618 294.977,669.682 C294.981,669.746 294.979333,669.81 294.972,669.874 C294.964667,669.938 294.951667,670.000667 294.933,670.062 C294.914333,670.124 294.890333,670.183667 294.861,670.241 C294.831667,670.298333 294.797333,670.352333 294.758,670.403 C294.718667,670.453667 294.675,670.500667 294.627,670.544 C294.579667,670.587333 294.528667,670.626 294.474,670.66 C294.419333,670.693333 294.362,670.721667 294.302,670.745 C294.242,670.769 294.180333,670.787 294.117,670.799 C294.017667,670.818333 293.917667,670.823333 293.817,670.814 C293.716333,670.805333 293.618667,670.782333 293.524,670.745 C293.43,670.708333 293.343,670.659 293.263,670.597 C293.183,670.535667 293.113,670.464 293.053,670.382 C292.993,670.300667 292.945667,670.212333 292.911,670.117 C292.876333,670.021667 292.856,669.923333 292.85,669.822 C292.843333,669.721333 292.850667,669.621667 292.872,669.523 C292.894,669.423667 292.929333,669.329667 292.978,669.241 C293.026667,669.152333 293.086667,669.072 293.158,669 C293.229333,668.928667 293.309333,668.868333 293.398,668.819 C293.486,668.770333 293.579333,668.734667 293.678,668.712 C293.777333,668.69 293.877333,668.682 293.978,668.688 Z" id="Path" fill="#645931"></path>
            <path d="M200.801,574.629 C200.893667,574.601667 200.988333,574.587333 201.085,574.586 C201.181667,574.584667 201.276667,574.596667 201.37,574.622 C201.463333,574.646667 201.551667,574.684 201.635,574.734 C201.717667,574.783333 201.792333,574.843 201.859,574.913 C201.925667,574.983 201.981333,575.061 202.026,575.147 C202.070667,575.232333 202.103,575.322333 202.123,575.417 C202.143,575.511667 202.149667,575.607333 202.143,575.704 C202.137,575.8 202.117667,575.893667 202.085,575.985 C202.052333,576.076333 202.008333,576.161333 201.953,576.24 C201.897,576.318667 201.831333,576.388333 201.756,576.449 C201.680667,576.509667 201.598667,576.559 201.51,576.597 C201.421333,576.635 201.329,576.660333 201.233,576.673 C201.168333,576.681667 201.103333,576.684 201.038,576.68 C200.972667,576.676 200.908333,576.666333 200.845,576.651 C200.781667,576.635 200.720333,576.613333 200.661,576.586 C200.601667,576.558667 200.545333,576.526333 200.492,576.489 C200.438667,576.451 200.389333,576.408333 200.344,576.361 C200.298667,576.314333 200.258,576.263667 200.222,576.209 C200.186667,576.154333 200.156333,576.096667 200.131,576.036 C200.105667,575.976 200.086333,575.914 200.073,575.85 C200.059667,575.786 200.052333,575.721333 200.051,575.656 C200.049667,575.590667 200.054333,575.526 200.065,575.462 C200.075667,575.397333 200.092,575.334333 200.114,575.273 C200.136667,575.211667 200.164667,575.153 200.198,575.097 C200.231333,575.041 200.269667,574.988667 200.313,574.94 C200.356333,574.890667 200.404,574.846 200.456,574.806 C200.507333,574.766 200.562,574.731 200.62,574.701 C200.678,574.671667 200.738333,574.647667 200.801,574.629 Z" id="Path" fill="#645931"></path>
            <path d="M149.069,339.281 C148.902,335.521 149.92,331.132 150.76,327.46 C160.464,285.053 194.645,237.66 231.508,214.572 C258.349,197.761 291.551,189.608 322.839,196.857 L323.678,197.052 C330.138,198.115 336.382,200.185 342.585,202.231 C366.605,210.152 383.584,221.663 402.085,238.668 C409.547,245.527 416.775,252.575 422.687,260.856 C426,265.497 428.728,270.28 431.223,275.403 C418.698,263.8 403.773,253.018 388.831,244.804 C362.105,230.112 324.544,217.869 293.75,219.064 C265.873,220.147 242.254,229.119 219.103,244.383 L214.669,247.572 C189.535,268.328 168.189,297.443 164.977,330.732 C162.998,351.242 169.466,370.121 182.588,385.893 C190.266,395.123 199.243,403.225 209.634,409.295 C213.45,411.524 218.652,413.544 221.978,416.251 C226.794,418.208 231.734,419.641 236.589,421.45 C233.449,421.528 230.308667,421.542 227.168,421.492 C204.933,418.123 185.121,409.8 169.05,393.607 C155.109,379.56 148.799,362.951 148.868424,343.212 L149.069,339.281 Z" id="Path" fill="#5D522C"></path>
            <path d="M227.168,421.492 C225.874,418.92 224.143,418.779 221.894,417.26 L221.978,416.251 C226.794,418.208 231.734,419.641 236.589,421.45 C233.449,421.528 230.308667,421.542 227.168,421.492 Z" id="Path" fill="#645931"></path>
            <path d="M214.669,247.572 C214.648,247.203 214.606,246.687 214.618,246.297 C214.666,244.85 215.132,243.797 216.192,242.852 C217.797,242.947 217.939,243.339 219.103,244.383 L214.669,247.572 Z" id="Path" fill="#645931"></path>
            <path d="M149.069,339.281 C149.49,340.069 149.663,340.897 150.491,341.27 C151.317,341.641 152.014,341.959 152.568,342.687 C151.416,343.47 150.217,343.319 148.869,343.212 L149.069,339.281 Z" id="Path" fill="#645931"></path>
            <polygon id="Path" fill="#645931" points="322.839 196.857 323.678 197.052 323.83 198.085 323.009 198.892 322.02 198.879 321.795 198.158"></polygon>
            <path d="M298.309,209.14 L299.77,209.87 C300.229,212.162 300.386,214.256 299.534,216.455 C298.627,216.144 299.079,216.384 298.223,215.657 C298.554,213.351 298.705,211.446 298.309,209.14 Z" id="Path" fill="#645931"></path>
            <path d="M160.194,354.337 C160.415,354.666 160.627,355.002 160.873,355.313 C161.57,356.195 162.098,356.575 162.251,357.733 L160.972,358.788 C159.977,358.486 159.123,358.28 158.296,357.629 C159.028,356.811 159.541,356.209 159.913,355.162 C160.011,354.888 160.101,354.612 160.194,354.337 Z" id="Path" fill="#645931"></path>
            <path d="M165.424,371.493 L165.811,372.476 C164.571667,374.012 163.381333,375.584667 162.24,377.194 C162.226,376.261 162.074,374.931 162.313,374.042 C162.72,372.521 164.167,372.156 165.424,371.493 Z" id="Path" fill="#645931"></path>
            <path d="M308.364,204.014 L311.381,204.981 L311.664,205.697 L310.308,206.323 C308.976,206.392 307.964,206.412 306.65,206.106 C306.847,204.971 307.512,204.731 308.364,204.014 Z" id="Path" fill="#645931"></path>
            <path d="M248.346,218.014 C249.084,217.91 249.228,218.223 249.824,218.626 L249.97,219.621 C249.271,219.836 248.623,220.064 247.951,220.356 C247.738,220.448 247.528,220.545 247.316,220.64 C246.585,220.091 246.478,219.9 246.077,219.119 C247.249,218.852 247.505,218.847 248.346,218.014 Z" id="Path" fill="#645931"></path>
            <path d="M336.401,207.105 L336.778,207.33 C337.647,208.87 337.894,209.463 337.756,211.226 C336.595,210.774 336.125,210.696 335.266,209.767 L336.401,207.105 Z" id="Path" fill="#645931"></path>
            <path d="M152.919,325.37 L153.879,325.644 C155.104,326.853 155.127,327.325 155.55,328.946 L154.268,328.546 C153.187,327.459 153.143,326.82 152.919,325.37 Z" id="Path" fill="#645931"></path>
            <path d="M78.084,527.161 C76.463,528.89 74.901,530.311 72.725,531.312 C64.827,534.944 54.011,535.175 45.939,531.952 C38.611,529.026 35.131,522.101 32.256,515.198 C27.444,503.644 28.449,483.276 33.202,471.791 C36.621,463.53 43.262,457.428 51.483,454.058 C58.426,451.213 68.228,450.502 75.198,453.616 C78.984,455.307 80.995,458.388 82.313,462.197 C86.188,473.388 85.326,512.002 80.105,522.484 C80.033,522.629 79.957,522.772 79.883,522.915 C79.464,524.529 78.926,525.726 78.084,527.161 Z" id="Path" fill="#5D522C"></path>
            <path d="M78.084,527.161 C76.831,525.462 76.5,525.278 74.471,524.691 C74.229,524.621 73.987,524.557 73.745,524.49 C74.992,523.646 76.651,524.354 78.133,523.982 C78.827,523.807 78.944,523.093 79.258,522.5 L79.883,522.915 C79.464,524.529 78.926,525.726 78.084,527.161 Z" id="Path" fill="#645931"></path>
            <path d="M32.388,487.45 C33.042,487.293 34.193,487.388 34.862,487.617 C36.447,488.161 36.588,488.812 37.343,490.155 L38.014,489.96 L38.242,487.2 L38.922,487.126 C39.479,488.619 40.01,489.561 40.991,490.816 L41.446,490.713 L41.273,488.76 C40.576,488.235 40.328,488.066 39.916,487.27 L40.426,486.769 C42.223,488.421 44.036,491.205 44.854,493.501 C43.728,492.82 42.732,492.323 41.482,491.872 L40.854,492.27 C42.119,493.831 44.422,494.11 45.539,495.848 C44.857,496.466 44.553,496.601 43.618,496.828 C42.501,497.099 43.003,496.753 42.304,497.509 L42.901,498.393 C44.339,499.009 44.423,498.874 45.955,498.454 C45.7083333,499.418667 45.4666667,500.384667 45.23,501.352 L45.972,501.511 C47.131,500.611 48.074,499.902 49.487,499.418 L50.297,499.888 L49.955,500.061 L49.955,500.603 C50.873,500.904 51.456,501.048 52.208,501.674 C51.546,502.124 50.773,502.366 50.033,502.666 L48.752,502.898 L47.439,501.897 L46.506,502.054 L45.727,503.478 C44.766,503.884 44.255,502.224 43.003,501.757 L42.478,502.277 L42.932,504.706 L42.207,505.067 L41.355,504.722 C41.744,503.543 41.729,504.107 41.517,503.038 L40.761,502.78 C39.116,503.526 38.475,503.554 36.759,503.113 C36.57,503.064 36.383,503.007 36.196,502.954 L35.821,504.009 L34.935,502.107 L34.218,501.942 C33.8,502.681 33.643,502.86 32.942,503.421 L32.365,502.852 C31.989,501.643 31.914,501.126 32.283,499.908 L34.238,499.412 C35.352,499.955 34.782,499.803 35.936,499.911 C36.311,499.545 36.491,499.394 36.825,498.939 C37.542,497.966 37.81,497.341 37.572,496.174 C36.747,495.724 36.554,495.641 36.033,494.816 C36.655,494.401 37.243,494.13 37.941,493.87 L38.787,493.56 L39.249,492.509 L38.861,491.741 L37.815,491.688 C36.689,492.38 35.821,493.017 34.452,493.055 L34.068,492.497 L34.288,491.363 L35.96,491.878 L36.457,491.452 L36.471,490.259 C35.404,488.924 34.225,488.805 32.631,488.252 L32.388,487.45 Z" id="Path" fill="#645931"></path>
            <path d="M47.986,491.097 L46.733,490.221 L45.152,491.204 L44.864,489.778 L45.934,489.33 C46.097,487.936 45.364,486.911 44.732,485.726 C46.084,485.256 46.32,486.345 47.433,485.839 C47.987,485.587 48.543,485.359 49.109,485.136 L50.01,485.739 C50.44,484.463 50.95,483.192 51.115,481.85 L51.622,482.254 L51.377,480.954 L51.85,480.759 L53.05,482.164 C54.005,481.907 54.285,481.699 55.039,481.105 L55.38,481.386 L54.62,482.345 L57.078,482.765 C56.665,484.549 54.871,483.991 55.145,486.157 C56.257,486.724 56.903,486.57 58.095,486.223 C58.752,486.032 59.107,485.886 59.72,485.653 L59.814,486.088 L58.068,488.028 C58.372,488.975 58.653,489.272 59.297,490 L58.791,490.559 C58.124,489.983 57.483,489.412 56.77,488.894 L56.37,489.249 L56.506,490.517 C55.85,490.329 55.36,490.102 54.755,489.797 L53.962,489.999 L54.99,492.229 C54.067,493.121 53.124,492.146 52.871,493.488 C52.833,493.691 52.879,494.566 52.889,494.798 C52.154,494.778 51.866,494.664 51.206,494.384 L50.225,494.538 L50.197,494.367 C49.976,493.3 49.742,492.449 49.253,491.474 L47.986,491.097 Z" id="Path" fill="#645931"></path>
            <path d="M58.339,511.181 C58.416,511.306 58.512,511.421 58.568,511.557 C58.858,512.26 58.982,512.959 59.328,513.657 C59.559,514.124 59.789,514.592 60.004,515.066 C59.014,515.098 58.22,515.11 57.292,515.477 L57.483,516.471 L58.763,517.064 L58.913,517.716 L57.774,518.943 C56.699,516.952 56.097,517.65 54.831,516.231 C55.017,515.124 55.449,514.441 56.04,513.498 C56.82,513.573 57.093,513.565 57.88,513.346 L58.339,511.181 Z" id="Path" fill="#645931"></path>
            <path d="M73.382,499.028 C73.503,498.99 73.62,498.935 73.745,498.913 C74.876,498.718 76.424,499.66 77.227,500.41 C78.167,501.289 78.256,502.019 78.307,503.246 C77.304,504.86 76.412,503.919 74.708,505.014 L74.625,504.638 C75.142,503.49 75.904,503.468 77.016,502.986 L77.209,502.241 L76.694,501.767 C75.55,502.182 74.86,502.538 73.618,502.394 C73.41,500.978 74.388,501.502 74.998,500.286 L73.626,499.829 L73.382,499.028 Z" id="Path" fill="#645931"></path>
            <path d="M67.254,518.773 C68.129,518.938 67.76,518.728 68.351,519.415 C67.866,520.112 67.405,520.817 66.952,521.536 C67.339,521.97 67.715,522.412 68.088,522.859 L67.64,523.532 C66.349,523.56 65.128,523.759 64.071,524.548 C63.897,524.678 63.74,524.83 63.575,524.971 L63.408,524.324 L61.685,524.261 L61.532,523.499 L62.022,522.986 C62.296,523.02 63.254,523.15 63.499,523.129 C64.807,523.015 66.43,519.914 67.254,518.773 Z" id="Path" fill="#645931"></path>
            <path d="M48.229,467.451 C50.019,469.486 52.086,471.239 53.827,473.321 L53.487,474.01 C51.807,472.28 50.333,471.292 48.143,470.312 C47.468,470.009 47.902,470.332 47.233,469.362 L48.229,467.451 Z" id="Path" fill="#645931"></path>
            <path d="M78.033,515.238 C78.549,515.294 78.249,515.204 78.829,515.735 C78.991,517.041 79.271,517.164 78.508,518.31 C76.892,518.691 75.424,518.306 73.824,518.016 L75.08,516.176 C76.099,516.243 75.672,516.108 76.658,516.683 C76.906,516.827 77.146,516.984 77.39,517.134 L77.934,516.738 L78.033,515.238 Z" id="Path" fill="#645931"></path>
            <path d="M48.439,522.979 C49.217,523.547 48.921,523.404 49.943,523.788 C50.189,523.88 50.442,523.955 50.692,524.038 C50.713,525.059 49.445,525.027 48.53,525.999 L48.32,526.002 C47.388,525.171 46.747,524.761 46.327,523.543 L47.442,523.812 L48.439,522.979 Z" id="Path" fill="#645931"></path>
            <path d="M55.525,527.503 C56.081,527.893 56.469,528.552 56.882,529.089 C56.839,530.546 56.763,530.479 55.744,531.547 C55.162,531.304 54.606,530.983 54.046,530.692 L55.542,529.222 L55.525,527.503 Z" id="Path" fill="#645931"></path>
            <path d="M242.092,287.115 C247.321,286.786 251.901,287.364 256.531,290.002 C263.937,294.222 268.719,302.088 271.025,310.107 C271.221667,310.791 271.401667,311.479333 271.565,312.172 C271.727667,312.864667 271.873667,313.561 272.003,314.261 C272.131667,314.961 272.243333,315.663667 272.338,316.369 C272.432667,317.075 272.51,317.782333 272.57,318.491 C272.630667,319.200333 272.673667,319.910667 272.699,320.622 C272.724333,321.333333 272.732333,322.045 272.723,322.757 C272.713667,323.468333 272.687,324.179333 272.643,324.89 C272.599,325.6 272.538,326.308667 272.46,327.016 C272.381333,327.723333 272.285333,328.428333 272.172,329.131 C272.059333,329.833667 271.929333,330.533333 271.782,331.23 C271.634667,331.926 271.470333,332.618333 271.289,333.307 C271.108333,333.995 270.910667,334.678333 270.696,335.357 C270.482,336.035667 270.251333,336.709 270.004,337.377 C269.756667,338.044333 269.493333,338.705333 269.214,339.36 C268.934,340.014 268.638667,340.661333 268.328,341.302 C268.016667,341.942 267.69,342.574 267.348,343.198 C263.075,350.832 257.147,355.401 248.736,357.833 C242.963,358.236 237.965,357.661 232.914,354.511 C225.054,349.609 220.402,340.759 218.57,331.893 C216.289,320.855 218.189,308.595 224.445,299.121 C228.695,292.686 234.56,288.706 242.092,287.115 Z" id="Path" fill="#FBC726"></path>
            <path d="M372.984,286.594 C377.755,286.037 382.205,286.858 386.476,289.085 C394.393,293.211 399.777,301.339 402.191,309.754 C402.395,310.44 402.581333,311.130667 402.75,311.826 C402.918667,312.521333 403.07,313.220333 403.204,313.923 C403.338,314.625667 403.454,315.331333 403.552,316.04 C403.65,316.748667 403.730333,317.459333 403.793,318.172 C403.855667,318.885333 403.900333,319.599333 403.927,320.314 C403.953667,321.029333 403.962333,321.744667 403.953,322.46 C403.943667,323.175333 403.916333,323.89 403.871,324.604 C403.825,325.318 403.761667,326.030333 403.681,326.741 C403.599667,327.451667 403.500667,328.16 403.384,328.866 C403.266667,329.572 403.132,330.274667 402.98,330.974 C402.828,331.673333 402.658333,332.368 402.471,333.058 C402.284333,333.748667 402.08,334.434333 401.858,335.115 C401.636667,335.795 401.398333,336.469333 401.143,337.138 C400.887,337.806 400.614667,338.467333 400.326,339.122 C400.037333,339.776667 399.732333,340.423667 399.411,341.063 C399.089667,341.702333 398.752333,342.333 398.399,342.955 C394.273,350.187 388.543,354.738 380.481,356.938 C374.561,357.508 369.752,357.013 364.49,353.856 C356.775,349.227 351.896,340.829 349.867,332.243 C347.286,321.319 348.767,309.335 354.785,299.76 C359.136,292.836 364.943,288.387 372.984,286.594 Z" id="Path" fill="#FBC726"></path>
            <path d="M453.821,373.903 C453.547,385.585 446.7,398.303 439.063,406.809 C425.928,421.438 411.047,424.409 392.278,425.4 L392.141,424.875 C396.483,422.559 401.637,421.33 406.137,419.019 C426.695,408.463 441.548,393.254 453.821,373.903 Z" id="Path" fill="#5D522C"></path>
        </g>
    </g>
</svg>
