<?xml version="1.0" encoding="UTF-8"?>
<svg width="726px" height="134px" viewBox="0 0 726 134" version="1.1" xmlns="http://www.w3.org/2000/svg" xmlns:xlink="http://www.w3.org/1999/xlink">
    <!-- Generator: Sketch 59.1 (86144) - https://sketch.com -->
    <title>Group 8</title>
    <desc>Created with Sketch.</desc>
    <g id="Logo-Canonical" stroke="none" stroke-width="1" fill="none" fill-rule="evenodd">
        <g id="Group-8">
            <g id="Group-9">
                <rect id="Rectangle" fill="#ECD53F" x="0" y="0" width="134" height="134" rx="6"></rect>
                <g id="Group-2" transform="translate(20.000000, 87.000000)" fill="#09090B" fill-rule="nonzero">
                    <polygon id="Path" points="0 21.0511829 9.38506024 21.0511829 9.38506024 30.3387829 0 30.3387829"></polygon>
                    <g id="Group" transform="translate(17.429398, 0.000000)">
                        <path d="M23.4532655,30.6107769 L23.4532655,25.4694269 L6.22631711,25.4694269 L6.22631711,17.1636589 L21.7076443,17.1636589 L21.7076443,12.0223089 L6.22631711,12.0223089 L6.22631711,5.25695566 L22.8646882,5.25695566 L22.8646882,0.0943768648 L0,0.0943768648 L0,30.6107769 L23.4532655,30.6107769 Z M34.5805952,30.6107769 L34.5805952,10.7107671 L47.0124482,30.6107769 L53.2595465,30.6107769 L53.2595465,0.0943768648 L47.4743272,0.0943768648 L47.4743272,20.4740249 L34.8541027,0.0943768648 L28.7960463,0.0943768648 L28.7960463,30.6107769 L34.5805952,30.6107769 Z M74.3564916,30.6107769 L85.400026,0.0943768648 L78.7956251,0.0943768648 L71.2440034,22.6798299 L63.4403258,0.0943768648 L56.6877749,0.0943768648 L67.7098578,30.6107769 L74.3564916,30.6107769 Z" id="Shape"></path>
                    </g>
                </g>
            </g>
            <path d="M212.3,102.2 L212.3,34.7 L229.1,34.7 C234.900029,34.7 239.77498,35.5249917 243.725,37.175 C247.67502,38.8250082 250.849988,41.1999845 253.25,44.3 C255.650012,47.4000155 257.374995,51.1249782 258.425,55.475 C259.475005,59.8250217 260,64.699973 260,70.1 C260,76.0000295 259.250007,80.9999795 257.75,85.1 C256.249993,89.2000205 254.250013,92.5249872 251.75,95.075 C249.249987,97.6250127 246.400016,99.4499945 243.2,100.55 C239.999984,101.650005 236.700017,102.2 233.3,102.2 L212.3,102.2 Z M188.75,14.9 L188.75,122 L234.95,122 C243.150041,122 250.27497,120.625014 256.325,117.875 C262.37503,115.124986 267.42498,111.350024 271.475,106.55 C275.52502,101.749976 278.54999,96.050033 280.55,89.45 C282.55001,82.849967 283.55,75.650039 283.55,67.85 C283.55,58.9499555 282.325012,51.200033 279.875,44.6 C277.424988,37.999967 274.025022,32.500022 269.675,28.1 C265.324978,23.699978 260.17503,20.400011 254.225,18.2 C248.27497,15.999989 241.850034,14.9 234.95,14.9 L188.75,14.9 Z M309.55,83.3 C309.55,80.1999845 309.849997,77.150015 310.45,74.15 C311.05,71.149985 312.074993,68.5000115 313.525,66.2 C314.975007,63.8999885 316.899988,62.0250072 319.3,60.575 C321.700012,59.1249927 324.699982,58.4 328.3,58.4 C331.900018,58.4 334.924988,59.1249927 337.375,60.575 C339.825012,62.0250072 341.774993,63.8999885 343.225,66.2 C344.675007,68.5000115 345.699997,71.149985 346.3,74.15 C346.900003,77.150015 347.2,80.1999845 347.2,83.3 C347.2,86.4000155 346.900003,89.4249852 346.3,92.375 C345.699997,95.3250147 344.675007,97.9749882 343.225,100.325 C341.774993,102.675012 339.825012,104.549993 337.375,105.95 C334.924988,107.350007 331.900018,108.05 328.3,108.05 C324.699982,108.05 321.700012,107.350007 319.3,105.95 C316.899988,104.549993 314.975007,102.675012 313.525,100.325 C312.074993,97.9749882 311.05,95.3250147 310.45,92.375 C309.849997,89.4249852 309.55,86.4000155 309.55,83.3 Z M288.25,83.3 C288.25,89.500031 289.19999,95.099975 291.1,100.1 C293.00001,105.100025 295.699982,109.374982 299.2,112.925 C302.700017,116.475018 306.899975,119.19999 311.8,121.1 C316.700024,123.000009 322.199969,123.95 328.3,123.95 C334.40003,123.95 339.924975,123.000009 344.875,121.1 C349.825025,119.19999 354.049982,116.475018 357.55,112.925 C361.050017,109.374982 363.75,105.100025 365.65,100.1 C367.550009,95.099975 368.5,89.500031 368.5,83.3 C368.5,77.099969 367.550009,71.4750252 365.65,66.425 C363.75,61.3749747 361.050017,57.0750177 357.55,53.525 C354.049982,49.9749822 349.825025,47.2250097 344.875,45.275 C339.924975,43.3249902 334.40003,42.35 328.3,42.35 C322.199969,42.35 316.700024,43.3249902 311.8,45.275 C306.899975,47.2250097 302.700017,49.9749822 299.2,53.525 C295.699982,57.0750177 293.00001,61.3749747 291.1,66.425 C289.19999,71.4750252 288.25,77.099969 288.25,83.3 Z M402.3,44.45 L402.3,21.2 L381,21.2 L381,44.45 L368.1,44.45 L368.1,58.7 L381,58.7 L381,104.45 C381,108.350019 381.649994,111.499988 382.95,113.9 C384.250006,116.300012 386.024989,118.149993 388.275,119.45 C390.525011,120.750006 393.124985,121.624998 396.075,122.075 C399.025015,122.525002 402.149983,122.75 405.45,122.75 C407.550011,122.75 409.699989,122.7 411.9,122.6 C414.100011,122.499999 416.1,122.300001 417.9,122 L417.9,105.5 C416.899995,105.7 415.850005,105.849999 414.75,105.95 C413.649995,106.05 412.500006,106.1 411.3,106.1 C407.699982,106.1 405.300006,105.500006 404.1,104.3 C402.899994,103.099994 402.3,100.700018 402.3,97.1 L402.3,58.7 L417.9,58.7 L417.9,44.45 L402.3,44.45 Z M473.3,74.9 L438.65,74.9 C438.750001,73.4 439.074997,71.7000095 439.625,69.8 C440.175003,67.9 441.124993,66.1000085 442.475,64.4 C443.825007,62.6999915 445.624989,61.2750057 447.875,60.125 C450.125011,58.9749942 452.949983,58.4 456.35,58.4 C461.550026,58.4 465.424987,59.799986 467.975,62.6 C470.525013,65.400014 472.299995,69.499973 473.3,74.9 Z M438.65,88.4 L494.6,88.4 C495.000002,82.39997 494.500007,76.6500275 493.1,71.15 C491.699993,65.6499725 489.425016,60.7500215 486.275,56.45 C483.124984,52.1499785 479.100025,48.7250127 474.2,46.175 C469.299976,43.6249872 463.550033,42.35 456.95,42.35 C451.049971,42.35 445.675024,43.3999895 440.825,45.5 C435.974976,47.6000105 431.800017,50.4749817 428.3,54.125 C424.799982,57.7750182 422.100009,62.099975 420.2,67.1 C418.29999,72.100025 417.35,77.499971 417.35,83.3 C417.35,89.30003 418.274991,94.799975 420.125,99.8 C421.975009,104.800025 424.599983,109.099982 428,112.7 C431.400017,116.300018 435.549976,119.07499 440.45,121.025 C445.350025,122.97501 450.84997,123.95 456.95,123.95 C465.750044,123.95 473.249969,121.95002 479.45,117.95 C485.650031,113.94998 490.249985,107.300047 493.25,98 L474.5,98 C473.799996,100.400012 471.900015,102.674989 468.8,104.825 C465.699985,106.975011 462.000022,108.05 457.7,108.05 C451.69997,108.05 447.100016,106.500015 443.9,103.4 C440.699984,100.299984 438.950001,95.3000345 438.65,88.4 Z M500.2,44.45 L500.2,122 L521.5,122 L521.5,81.35 C521.5,73.4499605 522.799987,67.7750172 525.4,64.325 C528.000013,60.8749827 532.199971,59.15 538,59.15 C543.100025,59.15 546.64999,60.7249842 548.65,63.875 C550.65001,67.0250157 551.65,71.799968 551.65,78.2 L551.65,122 L572.95,122 L572.95,74.3 C572.95,69.499976 572.525004,65.1250197 571.675,61.175 C570.824996,57.2249802 569.35001,53.8750137 567.25,51.125 C565.149989,48.3749862 562.275018,46.2250077 558.625,44.675 C554.974982,43.1249922 550.300028,42.35 544.6,42.35 C540.099978,42.35 535.700021,43.3749897 531.4,45.425 C527.099978,47.4750102 523.600013,50.7499775 520.9,55.25 L520.45,55.25 L520.45,44.45 L500.2,44.45 Z M625.05,122 L651.3,44.45 L630.15,44.45 L613.8,97.4 L613.5,97.4 L597.15,44.45 L574.8,44.45 L601.35,122 L625.05,122 Z M672.95,81.2 L647.45,44.45 L671.75,44.45 L685.4,64.7 L698.9,44.45 L722.45,44.45 L696.95,80.75 L725.6,122 L701.3,122 L685.1,97.55 L668.9,122 L645.05,122 L672.95,81.2 Z" id="Dotenvx" fill="#F9F9F9" fill-rule="nonzero"></path>
        </g>
    </g>
</svg>