<?xml version="1.0" encoding="UTF-8"?>
<svg width="705px" height="115px" viewBox="0 0 705 115" version="1.1" xmlns="http://www.w3.org/2000/svg" xmlns:xlink="http://www.w3.org/1999/xlink">
    <!-- Generator: Sketch 59.1 (86144) - https://sketch.com -->
    <title>Group 15</title>
    <desc>Created with Sketch.</desc>
    <g id="Logo-Canonical" stroke="none" stroke-width="1" fill="none" fill-rule="evenodd">
        <g id="Group-15" transform="translate(4.000000, -35.000000)">
            <g id="Group-14">
                <g id="Group-9" transform="translate(0.000000, 39.000000)">
                    <rect id="Rectangle" stroke="#ECD53F" stroke-width="4" fill="#09090B" x="-2" y="-2" width="111" height="111" rx="6"></rect>
                    <g id="Group-2" transform="translate(16.000000, 70.000000)" fill="#ECD53F" fill-rule="nonzero">
                        <polygon id="Path" points="0 16.9767604 7.49 16.9767604 7.49 24.4667604 0 24.4667604"></polygon>
                        <g id="Group" transform="translate(13.910000, 0.000000)">
                            <path d="M18.71751,24.6861104 L18.71751,20.5398604 L4.96908,20.5398604 L4.96908,13.8416604 L17.32437,13.8416604 L17.32437,9.69541037 L4.96908,9.69541037 L4.96908,4.23948037 L18.24778,4.23948037 L18.24778,0.0761103748 L0,0.0761103748 L0,24.6861104 L18.71751,24.6861104 Z M27.597975,24.6861104 L27.597975,8.63771537 L37.51955,24.6861104 L42.505215,24.6861104 L42.505215,0.0761103748 L37.888165,0.0761103748 L37.888165,16.5113104 L27.816255,0.0761103748 L22.98146,0.0761103748 L22.98146,24.6861104 L27.597975,24.6861104 Z M59.3422,24.6861104 L68.15579,0.0761103748 L62.88497,0.0761103748 L56.858195,18.2901854 L50.63026,0.0761103748 L45.241205,0.0761103748 L54.037675,24.6861104 L59.3422,24.6861104 Z" id="Shape"></path>
                        </g>
                    </g>
                </g>
                <path d="M187.3,126.2 L187.3,58.7 L204.1,58.7 C209.900029,58.7 214.77498,59.5249917 218.725,61.175 C222.67502,62.8250082 225.849988,65.1999845 228.25,68.3 C230.650012,71.4000155 232.374995,75.1249783 233.425,79.475 C234.475005,83.8250218 235,88.699973 235,94.1 C235,100.000029 234.250007,104.999979 232.75,109.1 C231.249992,113.20002 229.250012,116.524987 226.75,119.075 C224.249987,121.625013 221.400016,123.449995 218.2,124.55 C214.999984,125.650005 211.700017,126.2 208.3,126.2 L187.3,126.2 Z M163.75,38.9 L163.75,146 L209.95,146 C218.150041,146 225.27497,144.625014 231.325,141.875 C237.37503,139.124986 242.42498,135.350024 246.475,130.55 C250.52502,125.749976 253.54999,120.050033 255.55,113.45 C257.55001,106.849967 258.55,99.650039 258.55,91.85 C258.55,82.9499555 257.325012,75.200033 254.875,68.6 C252.424988,61.999967 249.025022,56.500022 244.675,52.1 C240.324978,47.699978 235.17503,44.400011 229.225,42.2 C223.27497,39.999989 216.850034,38.9 209.95,38.9 L163.75,38.9 Z M284.55,107.3 C284.55,104.199984 284.849997,101.150015 285.45,98.15 C286.05,95.149985 287.074993,92.5000115 288.525,90.2 C289.975007,87.8999885 291.899988,86.0250073 294.3,84.575 C296.700012,83.1249928 299.699982,82.4 303.3,82.4 C306.900018,82.4 309.924988,83.1249928 312.375,84.575 C314.825012,86.0250073 316.774993,87.8999885 318.225,90.2 C319.675007,92.5000115 320.699997,95.149985 321.3,98.15 C321.900003,101.150015 322.2,104.199984 322.2,107.3 C322.2,110.400015 321.900003,113.424985 321.3,116.375 C320.699997,119.325015 319.675007,121.974988 318.225,124.325 C316.774993,126.675012 314.825012,128.549993 312.375,129.95 C309.924988,131.350007 306.900018,132.05 303.3,132.05 C299.699982,132.05 296.700012,131.350007 294.3,129.95 C291.899988,128.549993 289.975007,126.675012 288.525,124.325 C287.074993,121.974988 286.05,119.325015 285.45,116.375 C284.849997,113.424985 284.55,110.400015 284.55,107.3 Z M263.25,107.3 C263.25,113.500031 264.19999,119.099975 266.1,124.1 C268.000009,129.100025 270.699982,133.374982 274.2,136.925 C277.700017,140.475018 281.899975,143.199991 286.8,145.1 C291.700024,147.00001 297.199969,147.95 303.3,147.95 C309.40003,147.95 314.924975,147.00001 319.875,145.1 C324.825025,143.199991 329.049982,140.475018 332.55,136.925 C336.050017,133.374982 338.75,129.100025 340.65,124.1 C342.550009,119.099975 343.5,113.500031 343.5,107.3 C343.5,101.099969 342.550009,95.4750253 340.65,90.425 C338.75,85.3749748 336.050017,81.0750178 332.55,77.525 C329.049982,73.9749823 324.825025,71.2250097 319.875,69.275 C314.924975,67.3249903 309.40003,66.35 303.3,66.35 C297.199969,66.35 291.700024,67.3249903 286.8,69.275 C281.899975,71.2250097 277.700017,73.9749823 274.2,77.525 C270.699982,81.0750178 268.000009,85.3749748 266.1,90.425 C264.19999,95.4750253 263.25,101.099969 263.25,107.3 Z M377.3,68.45 L377.3,45.2 L356,45.2 L356,68.45 L343.1,68.45 L343.1,82.7 L356,82.7 L356,128.45 C356,132.35002 356.649993,135.499988 357.95,137.9 C359.250006,140.300012 361.024989,142.149993 363.275,143.45 C365.525011,144.750006 368.124985,145.624998 371.075,146.075 C374.025015,146.525002 377.149983,146.75 380.45,146.75 C382.55001,146.75 384.699989,146.7 386.9,146.6 C389.100011,146.5 391.1,146.300002 392.9,146 L392.9,129.5 C391.899995,129.7 390.850005,129.849999 389.75,129.95 C388.649994,130.050001 387.500006,130.1 386.3,130.1 C382.699982,130.1 380.300006,129.500006 379.1,128.3 C377.899994,127.099994 377.3,124.700018 377.3,121.1 L377.3,82.7 L392.9,82.7 L392.9,68.45 L377.3,68.45 Z M448.3,98.9 L413.65,98.9 C413.75,97.4 414.074997,95.7000095 414.625,93.8 C415.175003,91.9 416.124993,90.1000085 417.475,88.4 C418.825007,86.6999915 420.624989,85.2750057 422.875,84.125 C425.125011,82.9749943 427.949983,82.4 431.35,82.4 C436.550026,82.4 440.424987,83.799986 442.975,86.6 C445.525013,89.400014 447.299995,93.499973 448.3,98.9 Z M413.65,112.4 L469.6,112.4 C470.000002,106.39997 469.500007,100.650028 468.1,95.15 C466.699993,89.6499725 464.425016,84.7500215 461.275,80.45 C458.124984,76.1499785 454.100024,72.7250127 449.2,70.175 C444.299975,67.6249873 438.550033,66.35 431.95,66.35 C426.04997,66.35 420.675024,67.3999895 415.825,69.5 C410.974976,71.6000105 406.800017,74.4749818 403.3,78.125 C399.799982,81.7750182 397.100009,86.099975 395.2,91.1 C393.29999,96.100025 392.35,101.499971 392.35,107.3 C392.35,113.30003 393.274991,118.799975 395.125,123.8 C396.975009,128.800025 399.599983,133.099982 403,136.7 C406.400017,140.300018 410.549975,143.07499 415.45,145.025 C420.350024,146.97501 425.849969,147.95 431.95,147.95 C440.750044,147.95 448.249969,145.95002 454.45,141.95 C460.650031,137.94998 465.249985,131.300047 468.25,122 L449.5,122 C448.799997,124.400012 446.900015,126.674989 443.8,128.825 C440.699984,130.975011 437.000021,132.05 432.7,132.05 C426.69997,132.05 422.100016,130.500016 418.9,127.4 C415.699984,124.299984 413.950001,119.300035 413.65,112.4 Z M475.2,68.45 L475.2,146 L496.5,146 L496.5,105.35 C496.5,97.4499605 497.799987,91.7750173 500.4,88.325 C503.000013,84.8749828 507.199971,83.15 513,83.15 C518.100025,83.15 521.64999,84.7249843 523.65,87.875 C525.65001,91.0250157 526.65,95.799968 526.65,102.2 L526.65,146 L547.95,146 L547.95,98.3 C547.95,93.499976 547.525004,89.1250198 546.675,85.175 C545.824996,81.2249803 544.35001,77.8750137 542.25,75.125 C540.149989,72.3749863 537.275018,70.2250078 533.625,68.675 C529.974982,67.1249922 525.300028,66.35 519.6,66.35 C515.099977,66.35 510.700021,67.3749897 506.4,69.425 C502.099978,71.4750102 498.600013,74.7499775 495.9,79.25 L495.45,79.25 L495.45,68.45 L475.2,68.45 Z M600.05,146 L626.3,68.45 L605.15,68.45 L588.8,121.4 L588.5,121.4 L572.15,68.45 L549.8,68.45 L576.35,146 L600.05,146 Z M647.95,105.2 L622.45,68.45 L646.75,68.45 L660.4,88.7 L673.9,68.45 L697.45,68.45 L671.95,104.75 L700.6,146 L676.3,146 L660.1,121.55 L643.9,146 L620.05,146 L647.95,105.2 Z" id="Dotenvx" fill="#F9F9F9" fill-rule="nonzero"></path>
            </g>
        </g>
    </g>
</svg>